# 3ds Max Wavefront OBJ Exporter v0.97b - (c)2007 guruware
# File Created: 12.12.2018 12:44:05

mtllib gem_low.mtl

#
# object Plane002
#

v  0.0678 0.2984 0.0678
v  0.0031 0.0121 0.0034
v  0.0045 0.0166 -0.0000
v  0.0967 0.2984 -0.0000
v  -0.0045 0.0166 -0.0000
v  -0.0967 0.2984 -0.0000
v  -0.0678 0.2984 -0.0678
v  -0.0031 0.0121 -0.0034
v  0.0031 0.0121 -0.0034
v  0.0678 0.2984 -0.0678
v  0.0000 0.0166 0.0049
v  0.0000 0.2984 0.0967
v  -0.0678 0.2984 0.0678
v  -0.0031 0.0121 0.0034
v  0.0000 0.0000 -0.0000
v  0.0016 0.4552 -0.0016
v  0.0000 0.4591 -0.0000
v  0.0016 0.4552 0.0016
v  0.0022 0.4541 -0.0000
v  0.0000 0.4541 0.0022
v  -0.0016 0.4552 -0.0016
v  0.0000 0.4541 -0.0022
v  0.0000 0.2984 -0.0967
v  -0.0016 0.4552 0.0016
v  -0.0022 0.4541 -0.0000
v  0.0000 0.0166 -0.0049
# 26 vertices

vn 0.7032 0.1051 0.7031
vn 0.6678 -0.3436 0.6603
vn 0.9520 -0.3061 0.0000
vn 0.9946 0.1040 0.0000
vn -0.9520 -0.3061 -0.0000
vn -0.9946 0.1040 0.0000
vn -0.7032 0.1051 -0.7031
vn -0.6678 -0.3436 -0.6603
vn 0.6678 -0.3436 -0.6603
vn 0.7032 0.1051 -0.7031
vn -0.0000 -0.3098 0.9508
vn 0.0000 0.1046 0.9945
vn -0.7032 0.1051 0.7031
vn -0.6678 -0.3436 0.6603
vn -0.0000 -1.0000 0.0000
vn 0.6106 0.5043 -0.6106
vn -0.0000 1.0000 0.0000
vn 0.6106 0.5043 0.6106
vn 0.8514 0.5245 -0.0000
vn 0.0000 0.5245 0.8514
vn -0.6106 0.5043 -0.6106
vn 0.0000 0.5245 -0.8514
vn 0.0000 0.1046 -0.9945
vn -0.6106 0.5043 0.6106
vn -0.8514 0.5245 0.0000
vn 0.0000 -0.3098 -0.9508
# 26 vertex normals

vt 0.3876 0.6133 0.0000
vt 0.5040 0.0606 0.0000
vt 0.5107 0.0692 0.0000
vt 0.5207 0.6086 0.0000
vt 0.5155 0.0719 0.0000
vt 0.5155 0.6057 0.0000
vt 0.3855 0.6128 0.0000
vt 0.5089 0.0634 0.0000
vt 0.5172 0.0607 0.0000
vt 0.6476 0.6147 0.0000
vt 0.5148 0.0719 0.0000
vt 0.5162 0.6056 0.0000
vt 0.3858 0.6126 0.0000
vt 0.5088 0.0634 0.0000
vt 0.5147 0.0404 0.0000
vt 0.5208 0.0634 0.0000
vt 0.5134 0.9359 0.0000
vt 0.5103 0.9439 0.0000
vt 0.5074 0.9359 0.0000
vt 0.5105 0.9337 0.0000
vt 0.6458 0.6129 0.0000
vt 0.5178 0.9388 0.0000
vt 0.5148 0.9366 0.0000
vt 0.6428 0.6121 0.0000
vt 0.5249 0.9377 0.0000
vt 0.5218 0.9355 0.0000
vt 0.5088 0.6067 0.0000
vt 0.6455 0.6128 0.0000
vt 0.5185 0.9387 0.0000
vt 0.5155 0.9365 0.0000
vt 0.5215 0.0709 0.0000
vt 0.5277 0.0623 0.0000
vt 0.5156 0.0624 0.0000
vt 0.5221 0.0393 0.0000
vt 0.5125 0.9387 0.0000
vt 0.5155 0.9468 0.0000
vt 0.3828 0.6143 0.0000
vt 0.5221 0.0634 0.0000
vt 0.5155 0.0403 0.0000
vt 0.5189 0.9378 0.0000
vt 0.5221 0.9458 0.0000
vt 0.5117 0.9388 0.0000
vt 0.5103 0.0373 0.0000
vt 0.5147 0.9469 0.0000
# 44 texture coords

o Plane002
g Plane002
usemtl Material__21
s 1
f 1/1/1 2/2/2 3/3/3 4/4/4 
f 5/5/5 6/6/6 7/7/7 8/8/8 
f 3/3/3 9/9/9 10/10/10 4/4/4 
f 11/11/11 12/12/12 13/13/13 14/14/14 
f 14/14/14 15/15/15 2/16/2 11/11/11 
s 2
f 16/17/16 17/18/17 18/19/18 19/20/19 
f 1/21/1 18/22/18 20/23/20 12/12/12 
f 10/10/10 16/17/16 19/20/19 4/4/4 
f 7/24/7 21/25/21 22/26/22 23/27/23 
f 13/28/13 24/29/24 25/30/25 6/6/6 
s 1
f 1/21/1 12/12/12 11/11/11 2/16/2 
f 7/24/7 23/27/23 26/31/26 8/32/8 
f 8/32/8 26/31/26 9/33/9 15/34/15 
s 2
f 21/35/21 25/30/25 24/29/24 17/36/17 
f 1/1/1 4/4/4 19/20/19 18/19/18 
f 7/7/7 6/6/6 25/30/25 21/35/21 
s 1
f 26/31/26 23/27/23 10/37/10 9/33/9 
f 13/28/13 6/6/6 5/5/5 14/38/14 
f 14/38/14 5/5/5 8/8/8 15/39/15 
s 2
f 16/40/16 22/26/22 21/25/21 17/41/17 
f 10/37/10 23/27/23 22/26/22 16/40/16 
f 13/13/13 12/12/12 20/23/20 24/42/24 
s 1
f 9/9/9 3/3/3 2/2/2 15/43/15 
s 2
f 24/42/24 20/23/20 18/22/18 17/44/17 
# 24 polygons

